<svg width="92" height="52" viewBox="0 0 92 52" fill="none" xmlns="http://www.w3.org/2000/svg">
<circle cx="62" cy="47" r="3.5" fill="#F2F2F2" stroke="black" stroke-width="3"/>
<circle cx="11" cy="47" r="3.5" fill="#F2F2F2" stroke="black" stroke-width="3"/>
<rect x="1.5" y="37.5" width="69" height="2" rx="1" fill="#1C1A1A" stroke="black"/>
<rect x="0.5" y="41.5" width="69" height="2" rx="1" fill="#1C1A1A" stroke="black"/>
<rect x="4.5" y="28.5" width="68" height="2" rx="1" fill="#1C1A1A" stroke="black"/>
<rect x="8.5" y="19.5" width="69" height="2" rx="1" fill="#1C1A1A" stroke="black"/>
<rect x="11.5309" y="11.9402" width="69" height="2" rx="1" transform="rotate(-3.66387 11.5309 11.9402)" fill="#1C1A1A" stroke="black"/>
<rect x="81.5309" y="1.10605" width="9" height="2" rx="1" transform="rotate(-3.66387 81.5309 1.10605)" fill="#1C1A1A" stroke="black"/>
<rect x="66.6409" y="42.9873" width="44" height="2" rx="1" transform="rotate(-70 66.6409 42.9873)" fill="#1C1A1A" stroke="black"/>
<rect x="60.6409" y="38.2889" width="31" height="2" rx="1" transform="rotate(-70 60.6409 38.2889)" fill="#1C1A1A" stroke="black"/>
<rect x="44.6409" y="38.2889" width="30" height="2" rx="1" transform="rotate(-70 44.6409 38.2889)" fill="#1C1A1A" stroke="black"/>
<rect x="28.6409" y="38.2889" width="29" height="2" rx="1" transform="rotate(-70 28.6409 38.2889)" fill="#1C1A1A" stroke="black"/>
<rect x="12.6409" y="38.2889" width="29" height="2" rx="1" transform="rotate(-70 12.6409 38.2889)" fill="#1C1A1A" stroke="black"/>
<rect x="0.640856" y="39.2889" width="29" height="2" rx="1" transform="rotate(-70 0.640856 39.2889)" fill="#1C1A1A" stroke="black"/>
</svg>
